<?xml version="1.0" encoding="UTF-8"?>
<svg width="153px" height="18px" viewBox="0 0 153 18" version="1.1" xmlns="http://www.w3.org/2000/svg" xmlns:xlink="http://www.w3.org/1999/xlink">
    <!-- Generator: Sketch 40.1 (33804) - http://www.bohemiancoding.com/sketch -->
    <title>logo</title>
    <desc>Created with Sketch.</desc>
    <defs></defs>
    <g id="Symbols" stroke="none" stroke-width="1" fill="none" fill-rule="evenodd">
        <g id="Navigation" transform="translate(-108.000000, -14.000000)">
            <g id="logo" transform="translate(108.000000, 14.000000)">
                <g id="餐馆最爱" transform="translate(71.000000, 0.000000)" fill="#FFFFFF">
                    <path d="M74.3252478,13.4154391 C74.9732478,13.4307 75.2952913,13.7566565 75.290987,14.3933087 C75.2866826,15.0178304 74.9662043,15.3293087 74.3295522,15.324613 C73.7046391,15.3097435 73.3943348,14.9951348 73.3982478,14.3811783 C73.4107696,14.0912217 73.4851174,13.8732652 73.6201174,13.7296565 C73.8106826,13.5179609 74.0458565,13.4138739 74.3252478,13.4154391 L74.3252478,13.4154391 Z M74.1511174,11.8568739 L73.4874652,2.8733087 C73.4565522,2.50548261 73.4420739,2.1987 73.4432478,1.95256957 C73.4592913,1.15939565 73.751987,0.76496087 74.3217261,0.768873913 C74.5447696,0.781004348 74.7392478,0.838134783 74.9071174,0.939873913 C74.9509435,0.973134783 74.9955522,1.02400435 75.0401609,1.0913087 C75.2725957,1.40591739 75.2992043,2.41665652 75.1211609,4.12391739 C75.0976826,4.24717826 74.8809,6.8250913 74.4688565,11.8580478 L74.1511174,11.8568739 L74.1511174,11.8568739 Z" id="Fill-2"></path>
                    <path d="M77.8360304,16.6363043 L77.3488565,16.731 L77.8794652,16.6421739 L77.8360304,16.6363043 Z M78.6961174,17.312087 C78.7732043,17.3195217 78.818987,17.3242174 78.8710304,17.3293043 C78.6965087,17.312087 78.6961174,17.312087 78.6961174,17.312087 L78.6961174,17.312087 Z M79.9353783,17.379 C79.8919435,17.3766522 79.8481174,17.3743043 79.8007696,17.3715652 C79.8492913,17.364913 79.8931174,17.3696087 79.9353783,17.379 L79.9353783,17.379 Z M79.655987,17.4075652 C79.682987,17.4103043 79.7072478,17.4126522 79.7365957,17.4153913 L79.5597261,17.4318261 C79.5597261,17.4318261 79.6004217,17.4216522 79.655987,17.4075652 L79.655987,17.4075652 Z M73.0660304,17.2909565 C72.5737696,17.2592609 72.1902913,17.2248261 71.8283348,17.1896087 C71.5012043,17.184913 71.1650739,17.1806087 70.8222913,17.175913 C69.9011609,17.1606522 69.0031174,17.1461739 68.1172043,17.132087 C68.2318565,17.1477391 68.0197696,17.1438261 67.9113783,17.1446087 L67.5783783,17.1446087 C68.5210304,17.1657391 69.4675957,17.1868696 70.430987,17.2083913 C71.2981174,17.2353913 72.2333348,17.2647391 73.0660304,17.2909565 L73.0660304,17.2909565 Z M40.0102043,17.4455217 C41.8853348,17.4216522 43.7416826,17.4052174 45.5945087,17.4071739 C45.1417696,17.4153913 44.690987,17.424 44.2386391,17.4322174 C42.8354217,17.4365217 41.4267261,17.4412174 40.0102043,17.4455217 L40.0102043,17.4455217 Z M74.8703348,17.0154783 L74.8672043,17.0154783 C75.011987,17.031913 75.1168565,17.0436522 75.1168565,17.0436522 C75.0159,17.0323043 74.9356826,17.022913 74.8703348,17.0154783 L74.8703348,17.0154783 Z M69.4104652,17.0741739 C69.4445087,17.076913 69.4726826,17.0788696 69.4989,17.0812174 C69.4034217,17.076913 69.3009,17.0722174 69.1874217,17.0671304 L68.7526826,17.0209565 C68.7526826,17.0209565 69.0805957,17.0475652 69.4104652,17.0741739 L69.4104652,17.0741739 Z M7.38403043,16.4973913 C7.85907391,16.5024783 8.30946522,16.5067826 8.72816087,16.511087 C8.80446522,16.5114783 8.88937826,16.5146087 8.95355217,16.518913 C8.92576957,16.5095217 9.01772609,16.5044348 9.19107391,16.5067826 C12.6063783,16.5373043 16.2791609,16.5662609 19.8967696,16.5564783 C19.9206391,16.5498261 19.9687696,16.5431739 20.0493783,16.5376957 C20.299813,16.520087 20.8026391,16.5071739 21.3238565,16.5126522 L21.7171174,16.518913 C23.3062043,16.5310435 24.889813,16.5435652 26.4710739,16.5556957 C26.7942913,16.5443478 27.1691609,16.5357391 27.5772913,16.5318261 C28.9484217,16.4985652 30.3207261,16.4653043 31.7153348,16.4316522 C31.6272913,16.4265652 31.5736826,16.4195217 31.5744652,16.4116957 C31.6014652,16.3925217 31.9258565,16.3756957 32.3046391,16.3725652 L32.8771174,16.365913 C32.3292913,16.3663043 31.7802913,16.3666957 31.2336391,16.367087 C31.154987,16.3666957 31.0825957,16.3663043 31.0152913,16.365913 C30.4142478,16.3706087 29.8073348,16.3753043 29.1898565,16.38 C23.800813,16.4398696 18.7357696,16.4833043 13.7086826,16.4746957 C13.6261174,16.4758696 13.4977696,16.4727391 13.4242043,16.4668696 C13.3756826,16.4613913 13.3842913,16.4551304 13.4766391,16.4547391 C15.0606391,16.4476957 16.5385957,16.4042609 18.067813,16.3698261 C19.6197261,16.3381304 21.2056826,16.3056522 22.9681174,16.2700435 C27.2305957,16.2082174 31.4398565,16.1045217 35.8103348,16.0098261 C40.3815522,15.9550435 44.6115522,15.8458696 49.2778565,15.7562609 C55.5805957,15.6365217 61.5405522,15.5903478 67.7165087,15.642 C68.8735957,15.6463043 69.9817696,15.6733043 70.8379435,15.7136087 C71.6949,15.7605652 72.2998565,15.8212174 72.4485522,15.8795217 C72.6215087,15.9499565 72.0967696,16.0031739 71.1439435,16.0270435 C71.3337261,16.0313478 71.5207696,16.0356522 71.708987,16.0399565 L72.6035087,16.0712609 C73.4495087,16.1017826 74.1714652,16.1436522 74.6257696,16.1906087 L75.2506826,16.2496957 C76.0822043,16.3486957 77.4247696,16.4715652 78.1021174,16.5846522 L77.9487261,16.6143913 L78.1091609,16.6296522 C78.6393783,16.6723043 78.9958565,16.7165217 79.1179435,16.7564348 L79.0655087,16.7967391 C78.952813,16.8413478 78.6855522,16.8785217 78.2582478,16.9074783 C78.2723348,16.9258696 78.2206826,16.941913 78.1091609,16.9548261 C78.4715087,17.0096087 78.6421174,17.0604783 78.3529435,17.1011739 C78.5712913,17.1207391 78.5345087,17.1379565 78.2735087,17.1403043 C78.1795957,17.1391304 78.0731609,17.1379565 77.9643783,17.1367826 L77.9671174,17.1371739 C78.0915522,17.1516522 78.1279435,17.1555652 78.2840739,17.1739565 C78.5008565,17.184913 78.6272478,17.1911739 78.6272478,17.1911739 C79.2052043,17.2173913 79.2052043,17.2173913 79.7064652,17.240087 C80.1376826,17.2686522 80.4033783,17.2976087 80.4033783,17.2976087 C80.8784217,17.388 80.8784217,17.388 80.8036826,17.4181304 C80.7735522,17.4204783 80.7418565,17.4224348 80.7105522,17.4243913 C81.0916826,17.4478696 81.1182913,17.4494348 81.221987,17.4556957 C81.3237261,17.4662609 81.4031609,17.474087 81.4031609,17.474087 C81.4192043,17.492087 81.4192043,17.492087 81.4845522,17.5006957 C81.5052913,17.5081304 81.5002043,17.5143913 81.5002043,17.5143913 C81.2861609,17.526913 81.2861609,17.526913 81.2802913,17.5323913 C81.2235522,17.5351304 81.1597696,17.5378696 81.1597696,17.5378696 C80.9097261,17.535913 80.8103348,17.5351304 80.7680739,17.5347391 C80.2335522,17.4725217 80.231987,17.4725217 80.231987,17.4725217 L80.114987,17.4842609 L79.9905522,17.4596087 L80.060987,17.4807391 L79.789813,17.4607826 L80.0989435,17.4873913 C79.4564217,17.4623478 79.4575957,17.4623478 79.2012913,17.4525652 C78.9344217,17.4455217 78.7062913,17.4392609 78.6789,17.4384783 C78.700813,17.4451304 78.701987,17.4494348 78.701987,17.4494348 C78.0172043,17.420087 78.0172043,17.420087 77.3484652,17.3911304 C77.2897696,17.3844783 77.2400739,17.379 77.1923348,17.3735217 C77.1277696,17.3766522 76.999813,17.3758696 76.8679435,17.37 L76.5173348,17.3555217 C76.4911174,17.3555217 76.4656826,17.355913 76.441813,17.355913 L76.442987,17.3574783 C76.3232478,17.357087 76.2410739,17.357087 76.1463783,17.357087 C76.0872913,17.3578696 76.0853348,17.3578696 76.0853348,17.3578696 L76.081813,17.3578696 C75.8779435,17.3598261 75.5829,17.3625652 74.8014652,17.3707826 C74.5952478,17.3633478 74.4027261,17.3563043 74.2192043,17.3500435 C74.2779,17.3539565 74.3334652,17.3578696 74.3890304,17.3617826 C74.497813,17.3703913 74.3980304,17.3848696 74.4571174,17.3876087 C75.9413348,17.4506087 77.5198565,17.5175217 79.0850739,17.5840435 C79.3672043,17.5906957 79.6317261,17.609087 79.672813,17.6243478 C79.7092043,17.6392174 79.5072913,17.645087 79.2181174,17.6380435 C77.6223783,17.6313913 75.8454652,17.5906957 74.0642478,17.5625217 C72.2924217,17.514 70.5076826,17.4654783 68.8516826,17.420087 C67.9896391,17.4036522 67.1236826,17.3868261 66.2553783,17.3703913 L66.3794217,17.3801739 C66.1540304,17.3735217 65.929813,17.3668696 65.7052043,17.3602174 L65.6324217,17.3594348 L66.1422913,17.3946522 C66.2600739,17.3989565 66.3774652,17.4032609 66.4964217,17.4071739 C68.5104652,17.4466957 70.3402043,17.4924783 72.2822478,17.5703478 C73.3145087,17.6149565 74.2246826,17.6544783 75.2095957,17.6967391 C75.4639435,17.7037826 75.6396391,17.7182609 75.6095087,17.73 C75.5793783,17.7413478 75.3422478,17.7448696 75.0937696,17.7386087 C71.8009435,17.6806957 68.0365957,17.6208261 65.3945087,17.4979565 C64.7919,17.496 64.2112043,17.4866087 63.7299,17.4666522 L63.7029,17.4662609 C63.8289,17.4752609 63.9478565,17.4838696 64.0738565,17.4928696 C63.6395087,17.4776087 63.3726391,17.4682174 62.9723348,17.4545217 L63.1241609,17.4893478 C60.9011609,17.4572609 58.4965957,17.4823043 56.4379435,17.442 C56.354987,17.4416087 56.2779,17.4408261 56.2004217,17.4400435 C55.3141174,17.4666522 54.4176391,17.5022609 53.3654217,17.5147826 C53.7215087,17.5151739 54.068987,17.5155652 54.4254652,17.5155652 C53.6624217,17.5382609 52.9052478,17.5554783 52.0882043,17.5617391 C49.8761609,17.5762174 47.3984217,17.5605652 46.2276391,17.481913 C41.9377696,17.55 37.6432043,17.6176957 33.3592043,17.6857826 C33.1381174,17.6893043 32.9393348,17.6838261 32.899813,17.6740435 C32.8771174,17.6642609 33.0230739,17.6525217 33.2441609,17.649 C36.3245087,17.5875652 39.4342043,17.5257391 42.5513348,17.463913 C39.9401609,17.4842609 37.3176391,17.5046087 34.646987,17.5253478 C34.3065522,17.5304348 33.9637696,17.5351304 33.6202043,17.5398261 C33.2805522,17.5413913 32.9452043,17.5429565 32.6079,17.5445217 C29.191813,17.5652609 25.9541609,17.5848261 22.4617696,17.6063478 C20.9724652,17.6188696 19.5762913,17.622 18.1816826,17.6157391 C16.7866826,17.6106522 15.3932478,17.6216087 13.909813,17.5993043 C11.8261174,17.5793478 9.83476957,17.564087 7.84968261,17.5046087 C6.85616087,17.4772174 5.86537826,17.4494348 4.86637826,17.4216522 C3.86542174,17.3766522 2.85703043,17.3312609 1.8279,17.285087 C1.28046522,17.262 0.774508696,17.2189565 0.711508696,17.1896087 C0.646943478,17.1602609 1.0452913,17.1547826 1.5942913,17.1774783 C10.1806826,17.5253478 18.6109435,17.5425652 27.5804217,17.5057826 C28.5481174,17.5022609 29.4997696,17.4987391 30.4463348,17.4956087 C30.4342043,17.492087 30.4228565,17.4885652 30.4228565,17.4850435 C30.4228565,17.4705652 30.5124652,17.4564783 30.6639,17.4439565 C29.5893783,17.4439565 28.5062478,17.4443478 27.4180304,17.4447391 C25.9064217,17.4709565 24.3936391,17.487 22.8554217,17.4905217 C21.3172043,17.4995217 19.7543348,17.4987391 18.1417696,17.4686087 C15.9273783,17.442 13.9239,17.3719565 11.8765957,17.2956522 C10.5790304,17.2827391 9.28381304,17.249087 7.98507391,17.2126957 C6.68633478,17.1731739 5.38368261,17.1551739 4.07398696,17.091 C3.96911739,17.0878696 3.86072609,17.0800435 3.82316087,17.0733913 C3.78598696,17.0663478 3.84272609,17.064 3.94837826,17.0671304 C5.75072609,17.1289565 7.59807391,17.1414783 9.46185652,17.1892174 C9.16837826,17.163 8.99424783,17.1356087 9.0185087,17.112913 C9.04237826,17.0894348 9.2709,17.0753478 9.61916087,17.0718261 L8.3525087,17.0276087 C8.0919,17.0182174 7.88646522,17.0017826 7.8942913,16.9900435 C7.90055217,16.9771304 8.10833478,16.9747826 8.35681304,16.9833913 C10.0789435,17.0514783 11.7987261,17.082 13.5181174,17.1207391 C15.5826391,17.1614348 17.6401174,17.1524348 19.7085522,17.1700435 C19.4217261,17.1508696 19.210813,17.1289565 19.1106391,17.1058696 L19.1102478,17.1054783 C18.7897696,17.1027391 18.4708565,17.1 18.1527261,17.0972609 C12.3105522,17.1062609 6.32711739,16.9931739 0.304552174,16.6515652 C0.186769565,16.646087 0.0893347826,16.637087 0.0877695652,16.6312174 C0.0858130435,16.6253478 0.177378261,16.6249565 0.283421739,16.6304348 C2.10181304,16.7176957 3.91511739,16.8147391 5.72372609,16.8808696 L5.7162913,16.880087 C5.6435087,16.8746087 5.63020435,16.8675652 5.71003043,16.8663913 C5.77968261,16.8652174 5.92211739,16.869913 5.99372609,16.8753913 C6.07746522,16.8820435 6.06924783,16.887913 6.00116087,16.8894783 C7.6865087,16.9368261 9.36520435,16.9990435 11.0364652,17.024087 C12.7073348,17.0444348 14.369987,17.076913 16.0212913,17.0788696 C12.9522913,17.0350435 9.8832913,16.9743913 6.82055217,16.8483913 C6.48598696,16.844087 6.15259565,16.8397826 5.81333478,16.8354783 C5.72098696,16.8335217 5.60007391,16.8264783 5.5632913,16.8198261 C5.53785652,16.8143478 5.60555217,16.8112174 5.70063913,16.8131739 L5.98198696,16.817087 C5.40168261,16.7967391 4.95559565,16.7560435 4.96655217,16.725913 C4.99942174,16.700087 5.49872609,16.695 6.10094348,16.7157391 C7.7142913,16.7634783 9.32176957,16.8108261 10.9288565,16.8585652 L11.4504652,16.8644348 C11.6261609,16.8636522 11.7999,16.8628696 11.9752043,16.8616957 C10.724987,16.835087 9.47672609,16.7912609 8.23081304,16.7392174 C6.9852913,16.6863913 5.74172609,16.6511739 4.50324783,16.583087 C4.29037826,16.5733043 4.10920435,16.556087 4.1052913,16.545913 C4.10059565,16.5353478 4.27316087,16.5345652 4.48681304,16.5447391 C8.85572609,16.6781739 13.2794217,16.7728696 17.7234652,16.7912609 C19.1826391,16.7638696 20.6453348,16.7345217 22.1354217,16.6883478 C21.947987,16.6875652 21.7582043,16.6867826 21.5680304,16.686 C16.7385522,16.6617391 12.6384652,16.7345217 7.96276957,16.6006957 C7.84576957,16.5979565 7.74872609,16.5905217 7.73346522,16.5846522 C7.72094348,16.5791739 7.80076957,16.5764348 7.91933478,16.5803478 C10.2010304,16.6511739 12.2851174,16.6386522 14.548813,16.6582174 C16.4247261,16.668 18.2086826,16.6527391 19.9515522,16.641 C18.1734652,16.6339565 16.4278565,16.6273043 14.6834217,16.6202609 C12.9429,16.5971739 11.2055087,16.5948261 9.4415087,16.5502174 C9.28733478,16.5474783 9.13198696,16.5396522 9.03376957,16.5306522 C9.02555217,16.5333913 8.99424783,16.5349565 8.9469,16.5353478 C8.4972913,16.5306522 8.0195087,16.5255652 7.53272609,16.5208696 C7.43881304,16.520087 7.31985652,16.5138261 7.27055217,16.5063913 C7.22163913,16.5005217 7.27916087,16.497 7.38403043,16.4973913 L7.38403043,16.4973913 Z" id="Fill-16"></path>
                    <path d="M13.5282522,6.12970435 C13.3134261,6.01192174 13.120513,5.99274783 12.9487304,6.07335652 C12.7769478,6.15357391 12.6161217,6.32261739 12.4658609,6.58009565 C12.4443391,6.70922609 12.5437304,6.7734 12.7636435,6.7734 C12.9835565,6.7734 13.1095565,6.85948696 13.1420348,7.03087826 C13.3028609,7.08487826 13.4100783,7.13574783 13.463687,7.18387826 C13.5172957,7.2320087 13.6139478,7.29931304 13.7536435,7.3854 L14.4294261,7.3854 C14.6008174,7.28835652 14.5366435,7.08174783 14.236513,6.76518261 C13.9359913,6.4490087 13.6996435,6.23692174 13.5282522,6.12970435 L13.5282522,6.12970435 Z M13.1095565,8.38283478 L11.5322087,8.96235652 C11.446513,8.97331304 11.4034696,9.00266087 11.4034696,9.0507913 C11.4034696,9.09931304 11.446513,9.13413913 11.5322087,9.15566087 C11.7360783,9.22022609 11.9399478,9.21748696 12.1438174,9.14744348 C12.347687,9.0777913 12.5730783,8.99444348 12.8199913,8.8977913 C13.0774696,8.86570435 13.2625565,8.77218261 13.3752522,8.61644348 C13.4879478,8.46070435 13.399513,8.38283478 13.1095565,8.38283478 L13.1095565,8.38283478 Z M11.8863391,4.13366087 C11.7900783,4.12309565 11.6691652,4.19822609 11.5243826,4.35905217 C11.3796,4.52026957 11.2962522,4.6490087 11.2747304,4.74526957 C11.2747304,4.8740087 11.3122957,4.96557391 11.3874261,5.01918261 C11.4625565,5.0727913 11.5752522,5.07787826 11.725513,5.03522609 C11.8648174,4.9280087 12.0123391,4.86618261 12.1680783,4.85013913 C12.3234261,4.83409565 12.4873826,4.80983478 12.6591652,4.77774783 C13.066513,4.50970435 13.1122957,4.33518261 12.7957304,4.25457391 C12.4791652,4.17396522 12.2083826,4.13366087 11.9829913,4.13366087 L11.8863391,4.13366087 Z M11.5322087,9.76726957 C11.4570783,9.76726957 11.4089478,9.79935652 11.3874261,9.86353043 C11.3659043,9.92809565 11.3498609,9.99226957 11.3392957,10.0568348 L11.2747304,10.7009217 C11.2641652,10.7971826 11.2852957,10.8562696 11.3392957,10.8777913 C11.3929043,10.899313 11.4786,10.8938348 11.5967739,10.8617478 C11.7681652,10.8081391 11.9430783,10.7490522 12.1199478,10.6848783 C12.2968174,10.620313 12.4979478,10.5291391 12.7233391,10.4109652 C12.8626435,10.3041391 12.9006,10.2098348 12.8360348,10.1296174 C12.7718609,10.0486174 12.6802957,10.0032261 12.562513,9.99226957 C12.2619913,10.0247478 12.0796435,9.99813913 12.0150783,9.91205217 C11.9509043,9.82635652 11.7900783,9.77783478 11.5322087,9.76726957 L11.5322087,9.76726957 Z M11.7576,7.22418261 L11.6609478,7.22418261 C11.510687,7.32083478 11.3713826,7.4390087 11.2426435,7.57831304 C11.1139043,7.7180087 10.9957304,7.8357913 10.888513,7.93244348 C10.8133826,8.09326957 10.8133826,8.23022609 10.888513,8.34253043 C10.9636435,8.45522609 11.0923826,8.49044348 11.2747304,8.4474 C11.5537304,8.36170435 11.8112087,8.27561739 12.0475565,8.18992174 C12.2831217,8.10422609 12.5409913,7.9970087 12.8199913,7.86787826 C12.9377739,7.82522609 13.0023391,7.78492174 13.0132957,7.74735652 C13.0238609,7.7097913 12.9702522,7.68553043 12.8520783,7.67457391 C12.7448609,7.64248696 12.6239478,7.6370087 12.4901217,7.65853043 C12.3559043,7.68044348 12.2404696,7.70705217 12.1438174,7.73913913 C11.8648174,7.72857391 11.7736435,7.65070435 11.8702957,7.50592174 C11.9669478,7.36074783 11.9293826,7.26683478 11.7576,7.22418261 L11.7576,7.22418261 Z M10.1802522,4.0374 C10.0299913,4.13366087 9.85312174,4.24635652 9.64925217,4.37509565 C9.44538261,4.50383478 9.2466,4.61653043 9.05368696,4.71318261 C8.94607826,4.76718261 8.90616522,4.8204 8.93316522,4.8740087 C8.95977391,4.9280087 9.0216,4.96009565 9.11825217,4.97066087 L9.47238261,4.97066087 C9.59016522,4.97066087 9.71890435,4.94913913 9.8582087,4.90648696 C10.0299913,4.80983478 10.1990348,4.63844348 10.3653391,4.39153043 C10.5316435,4.14461739 10.4702087,4.02683478 10.1802522,4.0374 L10.1802522,4.0374 Z M9.08577391,0.914791304 C9.15033913,0.603704348 9.31116522,0.413530435 9.56864348,0.343095652 C9.82612174,0.273834783 10.051513,0.378313043 10.2448174,0.656921739 C10.4056435,0.796617391 10.5073826,0.912443478 10.5504261,1.00322609 C10.5934696,1.0944 10.609513,1.22626957 10.5989478,1.39766087 C10.5770348,1.56944348 10.6040348,1.67118261 10.6791652,1.70326957 C10.7542957,1.73574783 10.8669913,1.7514 11.0172522,1.7514 L11.6609478,1.65513913 C11.9188174,1.68722609 12.0553826,1.79209565 12.0714261,1.96896522 C12.0874696,2.14622609 11.9720348,2.27770435 11.725513,2.3630087 C11.4895565,2.37396522 11.2449913,2.41153043 10.9929913,2.47609565 C10.7409913,2.54026957 10.5668609,2.70696522 10.4702087,2.9750087 C10.4271652,3.08261739 10.4271652,3.16283478 10.4702087,3.21644348 C10.5128609,3.27005217 10.5989478,3.28648696 10.727687,3.26457391 C10.888513,3.21135652 11.041513,3.17613913 11.1862957,3.16009565 C11.3310783,3.14405217 11.4895565,3.17887826 11.6609478,3.26457391 C11.7360783,3.31857391 11.8112087,3.38822609 11.8863391,3.47392174 C11.9614696,3.5600087 12.068687,3.59718261 12.2083826,3.58661739 C12.2940783,3.57605217 12.3985565,3.5784 12.5222087,3.59444348 C12.6454696,3.61087826 12.7448609,3.59718261 12.8199913,3.55453043 L13.5928174,3.45787826 C13.8283826,3.38274783 13.9571217,3.27005217 13.9786435,3.1197913 C14.0001652,2.96992174 13.8823826,2.82474783 13.6249043,2.68544348 C13.4531217,2.62087826 13.3513826,2.55905217 13.3189043,2.50035652 C13.2868174,2.44126957 13.3670348,2.35244348 13.5603391,2.23466087 C13.6354696,2.20257391 13.7133391,2.15405217 13.7935565,2.08987826 C13.8741652,2.02531304 13.9571217,1.94470435 14.0432087,1.84844348 C14.1289043,1.76235652 14.2177304,1.71970435 14.3089043,1.71970435 C14.4000783,1.71970435 14.5045565,1.73026957 14.6227304,1.7514 C14.9017304,1.68722609 15.1670348,1.66883478 15.4194261,1.69505217 C15.6714261,1.72205217 15.9426,1.86996522 16.2321652,2.1380087 C16.3503391,2.26674783 16.3984696,2.37396522 16.3769478,2.46005217 C16.3554261,2.54574783 16.2857739,2.66392174 16.1679913,2.81418261 L15.6851217,3.4257913 C15.5990348,3.56548696 15.577513,3.66448696 15.6205565,3.72357391 C15.6632087,3.78226957 15.7492957,3.84409565 15.8780348,3.90866087 C16.135513,3.9837913 16.3957304,4.11761739 16.658687,4.31092174 C16.9216435,4.50383478 17.1869478,4.70261739 17.4553826,4.90648696 C17.5410783,4.99257391 17.5708174,5.06731304 17.5438174,5.13187826 C17.5172087,5.19605217 17.4553826,5.23909565 17.3587304,5.26061739 C16.9404261,5.25005217 16.5459913,5.19370435 16.1758174,5.09157391 C15.8056435,4.98983478 15.4057304,4.88496522 14.9768609,4.77774783 C14.858687,4.71318261 14.7487304,4.69713913 14.6466,4.72922609 C14.5448609,4.76170435 14.4399913,4.86344348 14.3331652,5.03522609 C14.1398609,5.18548696 14.048687,5.31931304 14.0592522,5.43748696 C14.0698174,5.55566087 14.1609913,5.68987826 14.3331652,5.83974783 C14.6548174,6.18331304 14.9659043,6.48657391 15.2664261,6.74913913 C15.5669478,7.01248696 15.8995565,7.22418261 16.2642522,7.3854 C16.6719913,7.49261739 17.0554696,7.59435652 17.4150783,7.6910087 C17.774687,7.78726957 18.152687,7.89996522 18.5498609,8.02870435 C18.7752522,8.07174783 18.9200348,8.18718261 18.9846,8.3750087 C19.0487739,8.56283478 18.9576,8.69431304 18.710687,8.76905217 C18.592513,8.7800087 18.485687,8.79370435 18.3890348,8.80935652 C18.2923826,8.8254 18.1851652,8.82305217 18.0669913,8.80153043 L16.7150348,8.70487826 C16.4360348,8.59805217 16.1730783,8.45835652 15.9265565,8.28618261 C15.6796435,8.11518261 15.416687,7.91092174 15.137687,7.67457391 C15.0516,7.62135652 14.984687,7.57831304 14.9365565,7.54583478 C14.8880348,7.51413913 14.858687,7.56774783 14.8481217,7.70705217 C14.7514696,8.06118261 14.6199913,8.41531304 14.453687,8.76905217 C14.2869913,9.12318261 14.1934696,9.49922609 14.1719478,9.8960087 C14.2044261,9.97113913 14.2498174,10.0462696 14.3089043,10.1214 C14.3676,10.1965304 14.3758174,10.2607043 14.3331652,10.3147043 C14.236513,10.368313 14.1504261,10.4434435 14.0752957,10.5397043 C14.0001652,10.6363565 13.9250348,10.711487 13.8499043,10.7650957 L13.399513,10.6684435 L12.4337739,11.1192261 C12.2083826,11.1622696 11.9802522,11.2186174 11.7497739,11.2882696 C11.5189043,11.358313 11.3072087,11.4627913 11.1139043,11.6020957 C11.0172522,11.9026174 10.9636435,12.195313 10.9530783,12.4794 C10.9421217,12.763487 10.9100348,13.0612696 10.8564261,13.3727478 C10.8454696,13.5230087 10.8857739,13.6141826 10.9769478,13.6462696 C11.0681217,13.6783565 11.1890348,13.6944 11.3392957,13.6944 C11.6073391,13.6407913 11.8945565,13.5437478 12.2001652,13.4044435 C12.5061652,13.2651391 12.8199913,13.0933565 13.1420348,12.8898783 C13.3564696,12.6860087 13.4128174,12.5490522 13.3110783,12.4794 C13.2089478,12.4097478 13.0559478,12.3639652 12.8520783,12.3424435 C12.7018174,12.2994 12.5758174,12.2516609 12.4740783,12.1976609 C12.3719478,12.1440522 12.2510348,12.1389652 12.1117304,12.1812261 C11.9935565,12.1706609 11.9266435,12.1225304 11.9106,12.0368348 C11.8945565,11.9507478 11.9293826,11.8705304 12.0150783,11.7954 L12.5946,11.6341826 C12.8626435,11.5915304 13.1122957,11.5457478 13.3431652,11.4976174 C13.5736435,11.4490957 13.8178174,11.3340522 14.0752957,11.151313 C14.2686,10.9368783 14.4376435,10.7165739 14.5824261,10.4915739 C14.7272087,10.2661826 14.858687,10.0462696 14.9768609,9.83183478 C15.1056,9.53131304 15.2797304,9.42096522 15.5000348,9.50157391 C15.7195565,9.58218261 15.8459478,9.75670435 15.8780348,10.0247478 C15.8349913,10.2176609 15.7543826,10.4297478 15.6366,10.6602261 C15.5184261,10.8910957 15.3736435,11.1086609 15.2022522,11.3125304 C15.0731217,11.3986174 15.0144261,11.4788348 15.0249913,11.5539652 C15.0355565,11.6290957 15.1056,11.6877913 15.2343391,11.7308348 C15.5669478,11.8490087 15.9128609,11.9937913 16.2724696,12.1655739 C16.631687,12.3369652 16.9189043,12.6429652 17.1337304,13.0827913 C17.1869478,13.2220957 17.1924261,13.329313 17.1497739,13.4044435 C17.1067304,13.4795739 17.0151652,13.501487 16.8758609,13.4690087 C16.693513,13.3938783 16.5139043,13.3347913 16.3370348,13.2921391 C16.1597739,13.2490957 15.974687,13.2220957 15.7813826,13.2115304 C15.5990348,13.1148783 15.4249043,13.0370087 15.2582087,12.9779217 C15.0919043,12.9192261 14.9122957,12.8679652 14.7193826,12.825313 C14.6008174,12.7717043 14.4963391,12.7529217 14.4051652,12.7689652 C14.3139913,12.7850087 14.2255565,12.8574 14.1398609,12.9861391 C13.9359913,13.2440087 13.7266435,13.4557043 13.5122087,13.6220087 C13.2973826,13.788313 13.066513,13.9624435 12.8199913,14.1451826 C12.626687,14.2093565 12.4521652,14.2790087 12.2968174,14.3545304 C12.1410783,14.4292696 11.9614696,14.5529217 11.7576,14.7247043 C11.5967739,14.8855304 11.4598174,15.0115304 11.3471217,15.1027043 C11.2344261,15.1938783 11.0818174,15.2181391 10.888513,15.1750957 C10.7488174,15.121487 10.6282957,15.0330522 10.5265565,14.9097913 C10.4244261,14.7861391 10.3089913,14.6816609 10.1802522,14.5959652 C10.0730348,14.4237913 10.0112087,14.2711826 9.99516522,14.1369652 C9.97912174,14.0027478 9.96542609,13.8661826 9.95486087,13.7268783 C9.83668696,13.4369217 9.78855652,13.1735739 9.81007826,12.9380087 C9.8316,12.7020522 9.93333913,12.4390957 10.1160783,12.1495304 C10.1802522,11.6236174 10.2393391,11.1219652 10.2929478,10.6441826 C10.3465565,10.1667913 10.3520348,9.66005217 10.3089913,9.12318261 C10.2659478,8.97331304 10.2099913,8.86570435 10.1403391,8.80153043 C10.0702957,8.73735652 9.95486087,8.7800087 9.79403478,8.93026957 C9.51503478,9.13413913 9.24933913,9.35953043 8.99733913,9.60605217 C8.74533913,9.85296522 8.5172087,10.1214 8.31333913,10.4109652 C8.21668696,10.4540087 8.1306,10.4860957 8.05586087,10.5076174 C7.98073043,10.5291391 7.91616522,10.5616174 7.86255652,10.6038783 C7.58355652,10.6794 7.3206,10.7600087 7.07407826,10.845313 C6.82716522,10.9317913 6.57516522,10.9799217 6.31729565,10.990487 C5.86690435,10.9689652 5.60942609,10.8030522 5.54486087,10.4915739 C5.48068696,10.180487 5.6199913,9.9500087 5.96355652,9.79935652 C6.14551304,9.76726957 6.31729565,9.72970435 6.47851304,9.68666087 C6.63933913,9.6440087 6.82168696,9.57396522 7.02555652,9.47770435 C7.58355652,9.06996522 8.1122087,8.63796522 8.61112174,8.18209565 C9.11003478,7.72583478 9.64377391,7.21361739 10.2127304,6.64466087 C10.3520348,6.47326957 10.3414696,6.29053043 10.1802522,6.09761739 C10.0194261,5.90431304 9.82612174,5.92583478 9.60112174,6.1617913 C9.36477391,6.33357391 9.15268696,6.50535652 8.96525217,6.67674783 C8.77742609,6.84853043 8.57081739,6.9987913 8.34542609,7.12753043 C8.08794783,7.21361739 7.91890435,7.19992174 7.83829565,7.08722609 C7.75807826,6.97453043 7.78742609,6.80548696 7.92712174,6.58009565 C7.98073043,6.43022609 8.02338261,6.32261739 8.05586087,6.25844348 C8.08794783,6.19387826 8.19516522,6.17235652 8.37790435,6.19387826 C8.49568696,6.22635652 8.65651304,6.1617913 8.86077391,6.00096522 C9.06425217,5.83974783 9.15033913,5.70044348 9.11825217,5.58226957 C8.93551304,5.42144348 8.74807826,5.31931304 8.55477391,5.27666087 C8.36146957,5.2340087 8.17364348,5.31422609 7.99129565,5.51809565 L6.70390435,6.80548696 C6.48907826,6.98822609 6.30673043,7.0254 6.15646957,6.91818261 C6.0062087,6.81096522 5.94164348,6.63409565 5.96355652,6.38718261 C5.96355652,6.14066087 6.0519913,5.90705217 6.22886087,5.68713913 C6.40612174,5.46722609 6.60725217,5.22813913 6.83264348,4.97066087 C7.1222087,4.56331304 7.39846957,4.23853043 7.66142609,3.99709565 C7.92438261,3.75566087 8.27029565,3.74744348 8.69955652,3.97283478 C8.7422087,3.97283478 8.80951304,3.95444348 8.90068696,3.91648696 C8.99186087,3.87931304 9.06425217,3.83353043 9.11825217,3.77992174 C9.12881739,3.73687826 9.12333913,3.67505217 9.10181739,3.59444348 C9.08029565,3.51422609 9.06425217,3.45787826 9.05368696,3.4257913 C8.94607826,3.16831304 8.87916522,2.94018261 8.85255652,2.7417913 C8.82555652,2.5430087 8.81773043,2.32074783 8.82829565,2.07383478 C8.73164348,1.76235652 8.73164348,1.55848696 8.82829565,1.46222609 C8.92494783,1.36557391 9.01064348,1.18322609 9.08577391,0.914791304 L9.08577391,0.914791304 Z" id="Fill-18"></path>
                    <path d="M32.8267957,10.2476348 C32.4887087,10.3196348 32.1717522,10.4256783 31.8759261,10.5645913 C31.5801,10.703113 31.2572739,10.8514174 30.9074478,11.0079391 C30.5693609,11.1527217 30.4030565,11.3581565 30.4093174,11.6238522 C30.415187,11.8891565 30.4003174,12.1548522 30.3643174,12.4205478 C30.4124478,12.5414609 30.4817087,12.6165913 30.5724913,12.6467217 C30.6628826,12.6772435 30.7505348,12.6858522 30.8350565,12.6737217 C31.0401,12.5774609 31.2302739,12.4808087 31.405187,12.3841565 C31.5801,12.2875043 31.7765348,12.1669826 31.9937087,12.0222 C32.3317957,11.8046348 32.6546217,11.4516783 32.9625783,10.9629391 C33.2701435,10.4738087 33.2251435,10.2355043 32.8267957,10.2476348 L32.8267957,10.2476348 Z M30.4367087,0.469721739 L30.7626652,0.324547826 C30.9798391,0.336678261 31.206013,0.351547826 31.4415783,0.36993913 C31.6767522,0.38793913 31.909187,0.457591304 32.1384913,0.578113043 L33.1163609,1.70076522 C33.1887522,1.84554783 33.1797522,1.9785913 33.0893609,2.09911304 C32.9985783,2.22002609 32.8749261,2.32841739 32.718013,2.42506957 C32.6213609,2.46146087 32.5278391,2.47946087 32.4374478,2.47946087 C32.3470565,2.47946087 32.259013,2.48572174 32.1748826,2.49746087 C31.9455783,2.55811304 31.737013,2.61837391 31.5503609,2.67863478 C31.3629261,2.73928696 31.1727522,2.76315652 30.9798391,2.75102609 C30.7865348,2.71502609 30.684013,2.66337391 30.6718826,2.59724348 C30.6597522,2.53111304 30.7141435,2.42506957 30.8350565,2.28028696 C31.1246217,1.8338087 31.0733609,1.51998261 30.6808826,1.3388087 C30.2887957,1.15763478 30.207013,0.868069565 30.4367087,0.469721739 L30.4367087,0.469721739 Z M33.1163609,6.0102 C33.3335348,5.98633043 33.5569696,6.0195913 33.7866652,6.10998261 C34.0155783,6.20037391 34.2268826,6.34867826 34.420187,6.55372174 C34.4444478,6.78302609 34.4139261,6.9642 34.3294043,7.09685217 C34.2452739,7.22989565 34.1423609,7.4228087 34.0218391,7.67637391 C34.0821,7.83328696 34.1032304,7.94206957 34.0852304,8.00193913 C34.0672304,8.06298261 33.9733174,8.14711304 33.8046652,8.25589565 C33.6716217,8.34041739 33.5389696,8.4038087 33.4063174,8.44606957 C33.2732739,8.48833043 33.1406217,8.53372174 33.0079696,8.58185217 C32.7782739,8.71450435 32.5611,8.84715652 32.3560565,8.9802 C32.1506217,9.11285217 31.9213174,9.23337391 31.6681435,9.34215652 C31.5108391,9.24550435 31.3480565,9.23337391 31.179013,9.30615652 C31.0099696,9.37854783 30.8467957,9.4748087 30.6902739,9.59572174 C30.6174913,9.76476522 30.6053609,9.90054783 30.6538826,10.0030696 C30.702013,10.1055913 30.8350565,10.127113 31.0522304,10.0664609 C31.3175348,9.99406957 31.5711,9.91893913 31.8125348,9.84028696 C32.0539696,9.76163478 32.3196652,9.64385217 32.6096217,9.48693913 C32.7904043,9.41454783 32.9504478,9.36641739 33.0893609,9.34215652 C33.2278826,9.31789565 33.3937957,9.33041739 33.5871,9.37854783 C33.8770565,9.36641739 34.1059696,9.39967826 34.2754043,9.47793913 C34.4444478,9.5565913 34.6976217,9.75263478 35.0357087,10.0664609 C35.1202304,10.1873739 35.1562304,10.3020261 35.1444913,10.4104174 C35.1323609,10.5188087 35.1081,10.6338522 35.0721,10.7543739 C34.8666652,11.1288522 34.7097522,11.4516783 34.6013609,11.7232435 C34.4925783,11.9948087 34.5407087,12.3481565 34.7461435,12.7825043 C34.734013,13.0603304 34.6917522,13.2532435 34.6193609,13.3620261 C34.5469696,13.4704174 34.3477957,13.5306783 34.0218391,13.5432 C33.5511,13.6155913 33.0952304,13.6848522 32.6546217,13.7513739 C32.214013,13.8175043 31.7522739,13.9168957 31.2694043,14.0499391 C31.0158391,14.0980696 30.7865348,14.1555913 30.5814913,14.222113 C30.3760565,14.2882435 30.1588826,14.4240261 29.9295783,14.6294609 C29.8689261,14.6658522 29.8027957,14.6685913 29.7304043,14.6384609 C29.658013,14.6083304 29.6036217,14.5449391 29.5676217,14.448287 C29.2052739,14.0256783 28.9427087,13.5940696 28.7795348,13.1538522 C28.6167522,12.7132435 28.6014913,12.2636348 28.7345348,11.8046348 C28.9157087,11.0685913 29.0452304,10.3744174 29.1238826,9.72211304 C29.2021435,9.0705913 29.3617957,8.37641739 29.6036217,7.63998261 C29.6517522,7.43493913 29.7061435,7.21463478 29.7667957,6.97906957 C29.8270565,6.74350435 29.9413174,6.52946087 30.1107522,6.33615652 C30.2191435,6.26376522 30.3216652,6.23989565 30.4183174,6.26376522 C30.5149696,6.28802609 30.6296217,6.27589565 30.7626652,6.22776522 C30.8350565,6.20350435 30.8863174,6.20702609 30.9164478,6.23676522 C30.9465783,6.26689565 30.9434478,6.32441739 30.9074478,6.40854783 C30.7505348,6.83154783 30.6718826,7.16650435 30.6718826,7.4138087 C30.6718826,7.66111304 30.702013,7.9902 30.7626652,8.40028696 C30.7744043,8.47306957 30.8166652,8.51846087 30.8894478,8.53646087 C30.9618391,8.55446087 31.0279696,8.53372174 31.0886217,8.47306957 C31.161013,8.37641739 31.2244043,8.31928696 31.2784043,8.30089565 C31.3327957,8.28289565 31.414187,8.26802609 31.5229696,8.25589565 C31.6317522,8.14711304 31.728013,8.03833043 31.8125348,7.92954783 C31.8970565,7.82115652 32.0301,7.70063478 32.2108826,7.5675913 C32.3677957,7.36254783 32.4194478,7.21189565 32.3650565,7.11485217 C32.3106652,7.0185913 32.1748826,6.91567826 31.9577087,6.80689565 C31.909187,6.79515652 31.8547957,6.76815652 31.7945348,6.72589565 C31.7342739,6.68363478 31.7041435,6.63824348 31.7041435,6.59011304 C32.0058391,6.30015652 32.2382739,6.13424348 32.4010565,6.09198261 C32.5642304,6.04972174 32.8025348,6.02272174 33.1163609,6.0102 L33.1163609,6.0102 Z M26.0184913,7.96593913 C25.9097087,7.84541739 25.7437957,7.76676522 25.5203609,7.73037391 C25.2969261,7.69437391 25.1251435,7.76089565 25.0042304,7.92954783 C25.0042304,8.05046087 25.0136217,8.19524348 25.0316217,8.36428696 C25.0496217,8.53372174 25.1008826,8.69024348 25.1854043,8.83502609 C25.2820565,8.83502609 25.3967087,8.80802609 25.5293609,8.75363478 C25.662013,8.69924348 25.7766652,8.60611304 25.8737087,8.47306957 C25.8854478,8.36428696 25.8885783,8.27976522 25.8827087,8.21950435 C25.8764478,8.15924348 25.9218391,8.07472174 26.0184913,7.96593913 L26.0184913,7.96593913 Z M26.4168391,6.37254783 L26.2720565,6.40854783 L24.9318391,6.95206957 C24.7870565,7.02446087 24.7236652,7.10311304 24.7416652,7.18763478 C24.7600565,7.27215652 24.835187,7.32615652 24.9682304,7.35041739 C25.1854043,7.35041739 25.5293609,7.24476522 26.0001,7.03346087 C26.4712304,6.82215652 26.6097522,6.60185217 26.4168391,6.37254783 L26.4168391,6.37254783 Z M25.294187,9.77689565 C25.2577957,9.76476522 25.2155348,9.77063478 25.1674043,9.79489565 C25.1188826,9.81915652 25.0644913,9.84928696 25.0042304,9.88528696 C24.8837087,10.1509826 24.7897957,10.4194174 24.7236652,10.6909826 C24.6571435,10.9629391 24.5937522,11.2372435 24.5334913,11.5150696 C24.4974913,11.6355913 24.5213609,11.7083739 24.6058826,11.7322435 C24.6904043,11.7565043 24.7870565,11.7443739 24.8958391,11.6962435 C25.0523609,11.5995913 25.2034043,11.4939391 25.3485783,11.3788957 C25.4933609,11.2646348 25.644013,11.1288522 25.8009261,10.9719391 C25.8737087,10.8388957 25.8885783,10.7215043 25.8463174,10.6185913 C25.8040565,10.5164609 25.7042739,10.4288087 25.5477522,10.3560261 C25.4147087,10.2836348 25.3575783,10.1873739 25.3755783,10.0664609 C25.3935783,9.94593913 25.3665783,9.84928696 25.294187,9.77689565 L25.294187,9.77689565 Z M25.1494043,4.81515652 C25.0523609,4.79128696 24.9682304,4.80928696 24.8958391,4.86954783 C24.8234478,4.9302 24.7627957,5.00846087 24.7146652,5.10511304 C24.5937522,5.18963478 24.4974913,5.27689565 24.4251,5.36767826 C24.3527087,5.45806957 24.3163174,5.55198261 24.3163174,5.64824348 C24.3887087,5.74528696 24.4822304,5.85954783 24.5968826,5.9925913 C24.7115348,6.12524348 24.8234478,6.22776522 24.9318391,6.30015652 C25.1372739,6.22776522 25.3423174,6.14011304 25.5477522,6.0375913 C25.7527957,5.93506957 25.9699696,5.81767826 26.1992739,5.68424348 C26.2837957,5.61185217 26.3323174,5.53946087 26.3444478,5.46706957 C26.356187,5.39467826 26.3444478,5.31054783 26.3080565,5.21350435 C26.2356652,5.12937391 26.1511435,5.08672174 26.0548826,5.08672174 C25.9578391,5.08672174 25.8737087,5.08085217 25.8009261,5.06872174 C25.644013,4.96033043 25.5262304,4.89106957 25.4479696,4.86054783 C25.3693174,4.83041739 25.2699261,4.81515652 25.1494043,4.81515652 L25.1494043,4.81515652 Z M24.5334913,0.94046087 C24.618013,0.81993913 24.7174043,0.756547826 24.8324478,0.750286957 C24.9471,0.744417391 25.0644913,0.771417391 25.1854043,0.831678261 C25.4507087,0.97646087 25.662013,1.13689565 25.8193174,1.31141739 C25.9758391,1.48672174 26.139013,1.71328696 26.3080565,1.99072174 C26.3683174,2.13550435 26.4407087,2.22589565 26.5252304,2.26228696 C26.6097522,2.29828696 26.7185348,2.31667826 26.8515783,2.31667826 C27.1411435,2.31667826 27.3974478,2.39533043 27.6208826,2.55185217 C27.8439261,2.70915652 28.1064913,2.92006957 28.4085783,3.18576522 C28.4809696,3.28241739 28.4989696,3.36067826 28.4629696,3.42093913 C28.4265783,3.4815913 28.3600565,3.53598261 28.2637957,3.58411304 C28.0344913,3.59624348 27.8137957,3.59311304 27.6028826,3.57511304 C27.3915783,3.55672174 27.1771435,3.48746087 26.9599696,3.36654783 C26.8515783,3.29415652 26.7455348,3.24915652 26.643013,3.23076522 C26.5404913,3.21276522 26.4285783,3.21002609 26.3080565,3.22176522 C26.1511435,3.29415652 25.9973609,3.4275913 25.8463174,3.62011304 C25.6952739,3.81341739 25.5716217,3.98246087 25.4753609,4.12724348 C25.4507087,4.16324348 25.4358391,4.19689565 25.4299696,4.22663478 C25.4237087,4.25715652 25.4389696,4.29628696 25.4753609,4.34441739 L25.9097087,4.27202609 C26.2720565,4.16324348 26.5436217,4.15150435 26.7244043,4.23602609 C26.9055783,4.32054783 27.1411435,4.53772174 27.4307087,4.88754783 C27.5394913,5.02098261 27.6447522,5.11137391 27.7476652,5.15950435 C27.850187,5.20763478 27.9617087,5.15363478 28.0826217,4.99633043 C28.1914043,4.81515652 28.3240565,4.64963478 28.4809696,4.4985913 C28.6378826,4.34754783 28.7345348,4.17576522 28.7709261,3.98246087 C28.867187,3.81341739 28.9791,3.77741739 29.1058826,3.87367826 C29.2326652,3.97033043 29.3140565,4.09085217 29.3500565,4.23602609 C29.3743174,4.3808087 29.4103174,4.47746087 29.4588391,4.5255913 C29.5069696,4.57411304 29.6278826,4.57411304 29.8207957,4.5255913 C30.4367087,4.23602609 31.0221,3.97933043 31.5773609,3.75589565 C32.1326217,3.53285217 32.7301435,3.31841739 33.3699261,3.11337391 C33.7682739,2.88406957 34.1998826,2.85706957 34.6647522,3.0315913 C35.1292304,3.20689565 35.5792304,3.48746087 36.0135783,3.87367826 C36.0981,3.97033043 36.1313609,4.04585217 36.1133609,4.10024348 C36.0949696,4.15424348 36.0378391,4.21176522 35.941187,4.27202609 C35.5671,4.4532 35.2348826,4.60111304 34.9453174,4.71576522 C34.6557522,4.83041739 34.3477957,4.93606957 34.0218391,5.03272174 C33.744013,5.06872174 33.4845783,5.09611304 33.2431435,5.11411304 C33.0017087,5.13250435 32.7422739,5.17750435 32.4648391,5.24989565 C32.3439261,5.24989565 32.2836652,5.22876522 32.2836652,5.18650435 C32.2836652,5.14424348 32.3196652,5.10511304 32.3920565,5.06872174 C32.5971,4.9122 32.7994043,4.76702609 32.9985783,4.63437391 C33.1977522,4.50172174 33.3937957,4.33267826 33.5871,4.12724348 C33.6598826,3.9945913 33.6837522,3.89167826 33.6598826,3.81928696 C33.6352304,3.74689565 33.5389696,3.70502609 33.3699261,3.69250435 C32.7904043,3.89793913 32.2261435,4.14250435 31.6767522,4.4258087 C31.1273609,4.70989565 30.5451,5.11724348 29.9295783,5.64824348 C29.7362739,5.9378087 29.5644913,6.21602609 29.4134478,6.48093913 C29.2624043,6.74702609 29.0843609,7.0365913 28.8793174,7.35041739 C28.650013,7.70063478 28.4265783,7.84854783 28.2094043,7.79376522 C27.9922304,7.73937391 27.7805348,7.5675913 27.5754913,7.27802609 C27.5031,7.16924348 27.4518391,7.12111304 27.4217087,7.13285217 C27.3915783,7.14537391 27.3583174,7.20524348 27.3219261,7.31402609 C27.3097957,7.50733043 27.2737957,7.69437391 27.2135348,7.87554783 C27.1528826,8.05672174 27.1411435,8.25589565 27.1771435,8.47306957 C27.1771435,8.65424348 27.1106217,8.79276522 26.9779696,8.88941739 C26.8449261,8.98646087 26.6942739,9.07646087 26.5252304,9.16098261 C26.4168391,9.24550435 26.3593174,9.31789565 26.3534478,9.37854783 C26.347187,9.4388087 26.4047087,9.4748087 26.5252304,9.48693913 C26.9478391,9.4388087 27.3039261,9.5112 27.5938826,9.70450435 C27.8834478,9.89741739 28.155013,10.2237652 28.4085783,10.6819826 C28.4931,10.8388957 28.4837087,10.9598087 28.381187,11.0443304 C28.2786652,11.1288522 28.1428826,11.1773739 27.9742304,11.189113 C27.7930565,11.1773739 27.6056217,11.1589826 27.4127087,11.1347217 C27.2194043,11.1104609 27.0323609,11.1288522 26.8515783,11.189113 C26.5733609,11.5033304 26.3017957,11.7928957 26.0364913,12.0582 C25.7707957,12.3238957 25.4753609,12.6013304 25.1494043,12.891287 C24.9799696,12.9758087 24.826187,13.0630696 24.6876652,13.1538522 C24.5487522,13.2442435 24.4008391,13.3737652 24.2439261,13.5432 C24.1472739,13.6394609 24.0384913,13.7059826 23.9179696,13.7423739 C23.7970565,13.7783739 23.6765348,13.7963739 23.556013,13.7963739 C23.4589696,13.7603739 23.3627087,13.6879826 23.2660565,13.5792 C23.1694043,13.4704174 23.0727522,13.3620261 22.9764913,13.2532435 C22.8915783,13.0603304 22.8735783,12.900287 22.9221,12.7735043 C22.9702304,12.6467217 23.0124913,12.4929391 23.0488826,12.3117652 C23.0488826,12.0703304 23.0821435,11.8891565 23.1482739,11.7686348 C23.2144043,11.648113 23.3865783,11.4786783 23.6644043,11.2615043 L23.9179696,10.7907652 C23.9661,10.1145913 23.9571,9.47206957 23.8909696,8.86202609 C23.8244478,8.25276522 23.7125348,7.6035913 23.556013,6.91567826 C23.5313609,6.86793913 23.4984913,6.81628696 23.4562304,6.76189565 C23.4135783,6.70750435 23.3748391,6.68637391 23.3384478,6.69850435 C23.1936652,6.79515652 23.0696217,6.90667826 22.9674913,7.03346087 C22.8645783,7.16024348 22.7467957,7.30228696 22.6141435,7.4592 C22.4087087,7.68850435 22.2067957,7.79102609 22.0076217,7.76676522 C21.8084478,7.74289565 21.6605348,7.6035913 21.5638826,7.35041739 L21.4191,6.77089565 C21.3831,6.52946087 21.4038391,6.31541739 21.4824913,6.12837391 C21.5611435,5.94093913 21.6366652,5.73276522 21.7086652,5.50346087 C22.1312739,4.99633043 22.5116217,4.50446087 22.8497087,4.02746087 C23.1874043,3.55085217 23.5196217,3.04098261 23.8455783,2.49746087 C24.0267522,2.23215652 24.1774043,1.98172174 24.2983174,1.74615652 C24.4188391,1.5105913 24.4974913,1.26641739 24.5334913,1.01285217 L24.5334913,0.94046087 Z" id="Fill-20"></path>
                    <path d="M47.7720391,7.2347087 C47.557213,7.30983913 47.3830826,7.3794913 47.2488652,7.44405652 C47.1146478,7.50823043 47.0316913,7.66396957 46.999213,7.9104913 C46.9240826,8.03923043 46.9377783,8.16014348 47.0399087,8.27283913 C47.1416478,8.38553478 47.2570826,8.50096957 47.3858217,8.61914348 C47.4820826,8.65083913 47.5466478,8.6484913 47.5791261,8.61092609 C47.6108217,8.57336087 47.6433,8.51153478 47.675387,8.42583913 C47.7184304,8.26501304 47.7880826,8.03140435 47.8847348,7.72540435 C47.981387,7.41979565 47.9438217,7.25623043 47.7720391,7.2347087 L47.7720391,7.2347087 Z M46.0980391,3.53257826 C46.0338652,3.59714348 45.9587348,3.67227391 45.8730391,3.75796957 C45.7865609,3.84444783 45.7654304,3.91918696 45.8084739,3.98336087 C45.9477783,4.00488261 46.0819957,3.96731739 46.2107348,3.87066522 C46.3394739,3.77401304 46.3019087,3.66131739 46.0980391,3.53257826 L46.0980391,3.53257826 Z M48.0619957,1.21488261 L47.9007783,1.24736087 C47.557213,1.29001304 47.2113,1.39214348 46.8626478,1.55296957 C46.5139957,1.71418696 46.1626043,1.92314348 45.8084739,2.18062174 C45.7759957,2.2131 45.7787348,2.22640435 45.8166913,2.22092609 C45.8538652,2.21544783 45.8836043,2.2131 45.9047348,2.2131 C46.1305174,2.12740435 46.3312565,2.05188261 46.5085174,1.9877087 C46.685387,1.92314348 46.8919957,1.90162174 47.1283435,1.92314348 C47.2891696,1.96618696 47.396387,2.05188261 47.450387,2.18062174 C47.5036043,2.30936087 47.450387,2.44905652 47.2891696,2.59931739 L46.7421261,3.01762174 C46.613387,3.06066522 46.5460826,3.11975217 46.5409957,3.19488261 C46.5351261,3.27001304 46.5914739,3.3291 46.7096478,3.37175217 C46.7953435,3.3827087 46.8892565,3.39875217 46.991387,3.42027391 C47.0931261,3.44179565 47.1925174,3.44688261 47.2891696,3.43631739 C47.5681696,3.13579565 47.8416913,2.73353478 48.1101261,2.22914348 C48.3781696,1.72475217 48.3621261,1.38705652 48.0619957,1.21488261 L48.0619957,1.21488261 Z M45.5830826,8.26501304 C45.5079522,8.25444783 45.4649087,8.27557826 45.4543435,8.32918696 C45.443387,8.38318696 45.4328217,8.44736087 45.4222565,8.5221 L45.3576913,9.03744783 C45.379213,9.26244783 45.4969957,9.25462174 45.7118217,9.01318696 C45.9262565,8.77175217 45.9153,8.55457826 45.6797348,8.36127391 L45.5830826,8.26501304 Z M46.2913435,9.10201304 C46.2588652,9.10201304 46.2189522,9.12079565 46.1708217,9.15796957 C46.1223,9.19553478 46.0765174,9.24131739 46.0338652,9.29492609 C45.937213,9.50975217 45.8166913,9.69718696 45.6715174,9.85840435 C45.5267348,10.0192304 45.3682565,10.2070565 45.1968652,10.4214913 C45.0786913,10.6468826 45.0516913,10.8429261 45.1162565,11.0092304 C45.1808217,11.1755348 45.3576913,11.2369696 45.6472565,11.1943174 C45.8299957,11.1512739 46.0041261,11.0867087 46.1708217,11.001013 C46.3367348,10.9153174 46.5163435,10.7865783 46.7096478,10.6144043 C47.0422565,10.2927522 47.1494739,10.0540565 47.0316913,9.8987087 C46.9135174,9.74296957 46.720213,9.50975217 46.4521696,9.19827391 C46.4200826,9.16618696 46.3930826,9.14192609 46.3719522,9.12588261 C46.3500391,9.10983913 46.3234304,9.10201304 46.2913435,9.10201304 L46.2913435,9.10201304 Z M44.4886043,11.1943174 C44.4346043,11.1837522 44.3946913,11.1837522 44.3680826,11.1943174 C44.3410826,11.2052739 44.3168217,11.2264043 44.2953,11.2584913 C44.0703,11.4091435 43.9626913,11.5347522 43.9736478,11.6368826 C43.984213,11.739013 44.0593435,11.8916217 44.1990391,12.0954913 C44.2096043,12.1385348 44.2444304,12.1999696 44.3035174,12.2805783 C44.362213,12.361187 44.4346043,12.3744913 44.5210826,12.3208826 C44.542213,12.1494913 44.5531696,11.9585348 44.5531696,11.7495783 C44.5531696,11.5402304 44.5316478,11.3551435 44.4886043,11.1943174 L44.4886043,11.1943174 Z M44.5531696,6.52644783 L44.3919522,6.59101304 L43.9415609,6.94475217 C43.8769957,7.03123043 43.8554739,7.10323043 43.8769957,7.16231739 C43.8985174,7.22140435 43.9736478,7.24566522 44.102387,7.2347087 L44.5852565,7.04179565 C44.6709522,6.96666522 44.7112565,6.86453478 44.7061696,6.73579565 C44.7003,6.60705652 44.6498217,6.53740435 44.5531696,6.52644783 L44.5531696,6.52644783 Z M44.5531696,7.97505652 C44.4886043,7.9644913 44.4404739,7.9644913 44.4079957,7.97505652 C44.3759087,7.98601304 44.3383435,8.0181 44.2953,8.0717087 C44.1771261,8.17892609 44.0675609,8.2967087 43.9654304,8.42583913 C43.8633,8.55457826 43.7803435,8.68331739 43.7161696,8.81205652 C43.6836913,8.91927391 43.678213,8.98383913 43.7001261,9.00536087 C43.7212565,9.02688261 43.7803435,9.03744783 43.8769957,9.03744783 C43.9415609,9.00536087 44.0190391,8.9811 44.110213,8.96466522 C44.201387,8.94901304 44.2847348,8.94079565 44.3598652,8.94079565 C44.5316478,8.89814348 44.6228217,8.75336087 44.633387,8.50644783 C44.6439522,8.25953478 44.6173435,8.08227391 44.5531696,7.97505652 L44.5531696,7.97505652 Z M44.4240391,9.9711 L44.3277783,10.0027957 L43.7161696,10.5502304 C43.6300826,10.6468826 43.6058217,10.7247522 43.6437783,10.7838391 C43.6809522,10.8429261 43.7482565,10.840187 43.8449087,10.7756217 C43.984213,10.6899261 44.1477783,10.5529696 44.3356043,10.3651435 C44.5234304,10.1777087 44.5531696,10.0462304 44.4240391,9.9711 L44.4240391,9.9711 Z M46.6775609,4.59536087 L46.2271696,4.7237087 C45.7759957,4.82036087 45.3576913,4.95183913 44.9714739,5.11814348 C44.5852565,5.28444783 44.1665609,5.46405652 43.7161696,5.65736087 C43.6195174,5.71096957 43.5952565,5.74853478 43.6437783,5.77005652 C43.6919087,5.79157826 43.7588217,5.79705652 43.8449087,5.7861 C44.3489087,5.67927391 44.8533,5.54192609 45.3576913,5.37562174 C45.8620826,5.20931739 46.3876043,5.01366522 46.9350391,4.78827391 C46.9565609,4.73466522 46.9483435,4.68105652 46.9111696,4.62705652 C46.873213,4.57383913 46.8278217,4.54136087 46.774213,4.53079565 L46.6775609,4.59536087 Z M44.102387,9.45575217 C43.9736478,9.47766522 43.8715174,9.50153478 43.796387,9.52853478 C43.7212565,9.55514348 43.6621696,9.61696957 43.6195174,9.71362174 C43.5549522,9.79931739 43.5416478,9.85840435 43.579213,9.8904913 C43.6167783,9.92257826 43.6731261,9.9174913 43.7482565,9.87405652 C43.8339522,9.78836087 43.9415609,9.71088261 44.0703,9.64083913 C44.1990391,9.57118696 44.2096043,9.50975217 44.102387,9.45575217 L44.102387,9.45575217 Z M44.4240391,1.18279565 C45.0145174,0.925317391 45.5858217,0.724186957 46.1383435,0.579404348 C46.6908652,0.434621739 47.2570826,0.335230435 47.8366043,0.281621739 C48.394213,0.2601 48.7268217,0.3861 48.8340391,0.659621739 C48.9416478,0.933534783 48.9843,1.31153478 48.9631696,1.79440435 C48.8129087,2.22366522 48.6704739,2.62318696 48.5366478,2.99375217 C48.4024304,3.36392609 48.1688217,3.77988261 47.8366043,4.24083913 C47.729387,4.35901304 47.7239087,4.42357826 47.8205609,4.43414348 C47.9168217,4.4451 48.0185609,4.43414348 48.1261696,4.40205652 C48.3085174,4.3374913 48.4744304,4.25453478 48.6250826,4.15240435 C48.7753435,4.05066522 48.9526043,3.95127391 49.1564739,3.85501304 C49.3173,3.81196957 49.4726478,3.78223043 49.6229087,3.76618696 C49.7731696,3.75014348 49.9500391,3.70475217 50.1543,3.62923043 C50.2184739,3.58657826 50.2908652,3.57601304 50.3714739,3.59714348 C50.4520826,3.61866522 50.5405174,3.64018696 50.6371696,3.66131739 C50.7659087,3.74740435 50.8246043,3.84131739 50.8140391,3.94305652 C50.8030826,4.04518696 50.7334304,4.13362174 50.6046913,4.20875217 C50.465387,4.25179565 50.3339087,4.28388261 50.2106478,4.30540435 C50.0869957,4.32692609 49.9715609,4.3374913 49.8643435,4.3374913 L46.0659522,5.7861 C46.0123435,5.82914348 45.9587348,5.86436087 45.9047348,5.89057826 C45.8511261,5.91757826 45.7975174,5.96844783 45.7443,6.04357826 C45.6366913,6.29088261 45.5615609,6.48379565 45.5185174,6.6231 C45.4758652,6.76279565 45.6261261,6.9024913 45.9693,7.04179565 C46.0980391,7.13805652 46.1946913,7.1811 46.2588652,7.17053478 C46.3234304,7.15957826 46.4306478,7.08444783 46.5809087,6.94475217 C46.6666043,6.88057826 46.7444739,6.8297087 46.8141261,6.79214348 C46.8841696,6.75457826 46.9565609,6.70918696 47.0316913,6.65518696 C47.2249957,6.55853478 47.396387,6.4701 47.5466478,6.3894913 C47.6969087,6.30927391 47.8577348,6.18327391 48.0295174,6.0114913 C48.1907348,5.88275217 48.3327783,5.81036087 48.4560391,5.79392609 C48.5793,5.77788261 48.7377783,5.7861 48.9310826,5.81857826 C49.3063435,5.80801304 49.6041261,5.89057826 49.8244304,6.06783913 C50.0439522,6.2451 50.0897348,6.55853478 49.9609957,7.00931739 C49.7356043,7.47066522 49.5693,7.91362174 49.4620826,8.33701304 C49.3544739,8.76118696 49.1991261,9.22018696 48.9952565,9.71362174 C48.9416478,9.87405652 48.9494739,10.0004478 49.0195174,10.0916217 C49.0891696,10.1827957 49.2096913,10.2927522 49.3814739,10.4214913 C49.564213,10.5502304 49.7356043,10.6629261 49.8968217,10.7595783 C50.0576478,10.8558391 50.2399957,10.9904478 50.4438652,11.1618391 C50.9161696,11.4197087 51.3853435,11.6396217 51.8521696,11.8219696 C52.3189957,12.0043174 52.804213,12.1815783 53.3089957,12.3529696 C53.4158217,12.4390565 53.4721696,12.514187 53.4776478,12.5783609 C53.4831261,12.6429261 53.4267783,12.7071 53.3089957,12.7716652 C52.8687783,12.8573609 52.453213,12.9109696 52.0615174,12.9324913 C51.6698217,12.9536217 51.2593435,12.9430565 50.8300826,12.9004043 C50.4759522,12.7176652 50.1218217,12.4922739 49.7680826,12.2242304 C49.4139522,11.956187 49.0383,11.6877522 48.6411261,11.4197087 C48.5554304,11.334013 48.4803,11.2964478 48.4157348,11.307013 C48.3515609,11.3175783 48.2764304,11.3766652 48.1907348,11.4838826 C47.6538652,11.9131435 47.179213,12.1948826 46.7659957,12.3287087 C46.3527783,12.4629261 45.8620826,12.460187 45.2931261,12.3208826 C45.1968652,12.2782304 45.1244739,12.2805783 45.0763435,12.3287087 C45.0278217,12.3772304 45.0039522,12.460187 45.0039522,12.5783609 L45.2289522,14.1877957 C45.218387,14.3380565 45.164387,14.4452739 45.0681261,14.5098391 C44.9714739,14.574013 44.8748217,14.5204043 44.7785609,14.349013 C44.5316478,13.9408826 44.362213,13.5495783 44.2714304,13.1739261 C44.1798652,12.7982739 44.0593435,12.4065783 43.9090826,11.9988391 C43.8769957,11.8701 43.8288652,11.7953609 43.7643,11.7734478 C43.7001261,11.7523174 43.6085609,11.7844043 43.4907783,11.8701 C43.0720826,12.235187 42.6780391,12.5701435 42.3074739,12.8761435 C41.9373,13.1817522 41.5377783,13.4364913 41.1085174,13.6407522 C40.6150826,13.855187 40.3384304,13.7479696 40.2797348,13.3187087 C40.2206478,12.8894478 40.4002565,12.5994913 40.8189522,12.4496217 C40.9903435,12.4281 41.1703435,12.3396652 41.3581696,12.1839261 C41.5456043,12.0285783 41.6880391,11.8595348 41.7846913,11.677187 L41.5593,10.8722739 C41.5162565,10.7650565 41.4951261,10.6363174 41.4951261,10.4856652 C41.4951261,10.3357957 41.5162565,10.1961 41.5593,10.0673609 C41.6234739,9.61696957 41.6853,9.18223043 41.744387,8.76392609 C41.8030826,8.34523043 41.8915174,7.89992609 42.0100826,7.42762174 C42.0100826,7.32079565 41.9936478,7.25857826 41.9615609,7.24253478 C41.9294739,7.22688261 41.8594304,7.2347087 41.752213,7.26679565 C41.2693435,7.41705652 40.8001696,7.55401304 40.3439087,7.67727391 C39.8880391,7.80092609 39.4239522,7.83575217 38.9516478,7.78214348 C38.8444304,7.7391 38.7559957,7.70427391 38.6863435,7.67727391 C38.6163,7.65066522 38.5654304,7.57827391 38.5333435,7.4601 C38.4366913,7.29888261 38.458213,7.11144783 38.5979087,6.89662174 C38.737213,6.68218696 38.8980391,6.58044783 39.0807783,6.59101304 L39.4669957,6.65518696 C40.1212565,6.55853478 40.754387,6.39496957 41.3659957,6.1644913 C41.9776043,5.93362174 42.6322565,5.62527391 43.3299522,5.23866522 C43.426213,5.16392609 43.4770826,5.08879565 43.4825609,5.01366522 C43.4880391,4.93853478 43.4586913,4.86340435 43.3941261,4.78827391 C43.3405174,4.79923043 43.300213,4.80431739 43.2736043,4.80431739 C43.2466043,4.80431739 43.2544304,4.76675217 43.2974739,4.69162174 C42.9112565,4.14418696 42.707387,3.62414348 42.6858652,3.13031739 C42.6643435,2.63688261 42.8146043,2.12740435 43.1366478,1.6014913 C43.3726043,1.25831739 43.5764739,1.08927391 43.7482565,1.09436087 C43.9196478,1.09983913 44.1450391,1.12918696 44.4240391,1.18279565 L44.4240391,1.18279565 Z" id="Fill-22"></path>
                    <path d="M61.9175739,2.8994087 C61.7778783,2.92093043 61.6385739,3.00388696 61.4992696,3.14866957 C61.3595739,3.29384348 61.3059652,3.43588696 61.3380522,3.5751913 C61.552487,3.81153913 61.7810087,3.83032174 62.0224435,3.63153913 C62.2638783,3.43314783 62.3574,3.22106087 62.3037913,2.99606087 C62.2501826,2.95301739 62.1856174,2.92601739 62.1108783,2.91506087 C62.0353565,2.90449565 61.9711826,2.8994087 61.9175739,2.8994087 L61.9175739,2.8994087 Z M61.9821391,8.50053913 L61.9175739,8.53262609 C61.7137043,8.60775652 61.5286174,8.70714783 61.362313,8.8304087 C61.1960087,8.95406087 61.0164,9.06910435 60.8230957,9.17632174 C60.6192261,9.29449565 60.5546609,9.4071913 60.6301826,9.5144087 C60.7049217,9.62201739 60.8230957,9.73471304 60.984313,9.85249565 C61.1130522,9.9921913 61.2257478,10.0833652 61.3220087,10.1260174 C61.4186609,10.1690609 61.5207913,10.1099739 61.6280087,9.94914783 C61.7567478,9.72375652 61.9120957,9.43145217 62.0948348,9.07184348 C62.2767913,8.71262609 62.2396174,8.52206087 61.9821391,8.50053913 L61.9821391,8.50053913 Z M59.4069652,7.34149565 C59.2993565,7.36301739 59.2160087,7.41388696 59.157313,7.49449565 C59.0982261,7.57510435 59.0528348,7.66353913 59.0203565,7.7601913 C58.9456174,7.92101739 58.9319217,8.04153913 58.9804435,8.12214783 C59.0285739,8.20275652 59.149487,8.27514783 59.3424,8.33932174 C59.4817043,8.35027826 59.5540957,8.35027826 59.5595739,8.33932174 C59.5650522,8.32875652 59.5998783,8.39332174 59.6644435,8.53262609 C59.7501391,8.7044087 59.8546174,8.82532174 59.9782696,8.89458261 C60.1015304,8.96462609 60.2330087,8.96188696 60.3727043,8.88675652 C60.5871391,8.80106087 60.7960957,8.70714783 61.0003565,8.60501739 C61.2038348,8.50327826 61.4237478,8.36123478 61.6600957,8.17849565 C61.6921826,8.0928 61.7027478,8.02549565 61.6921826,7.97736522 C61.6816174,7.92923478 61.6385739,7.91045217 61.5634435,7.92101739 L60.4689652,8.24306087 C60.3507913,8.22153913 60.2380957,8.20275652 60.1312696,8.18671304 C60.0236609,8.17066957 59.9109652,8.20001739 59.7931826,8.27514783 L59.6644435,8.27514783 C59.814313,8.10375652 59.8518783,7.92101739 59.7771391,7.72771304 C59.7016174,7.5348 59.5783565,7.40606087 59.4069652,7.34149565 L59.4069652,7.34149565 Z M64.557313,3.76810435 C63.9347478,3.85458261 63.3712696,4.0154087 62.8672696,4.25136522 C62.3628783,4.48771304 61.8103565,4.75575652 61.209313,5.05588696 C60.8015739,5.2491913 60.4180957,5.43701739 60.058487,5.61936522 C59.6988783,5.80210435 59.3208783,6.03258261 58.9240957,6.31158261 C58.7844,6.4188 58.7440957,6.5181913 58.8031826,6.60936522 C58.8622696,6.70053913 58.9561826,6.7514087 59.0849217,6.76197391 C59.2782261,6.70836522 59.4523565,6.6978 59.6080957,6.72988696 C59.7634435,6.76197391 59.9004,6.89110435 60.0185739,7.11610435 C60.1148348,7.2558 60.2169652,7.3281913 60.3241826,7.33366957 C60.4314,7.33914783 60.5546609,7.27732174 60.6943565,7.14858261 C60.769487,7.01984348 60.7933565,6.90988696 60.7667478,6.81832174 C60.7397478,6.72753913 60.6622696,6.66571304 60.5335304,6.63323478 C60.3938348,6.60114783 60.2999217,6.49393043 60.2517913,6.31158261 C60.2036609,6.12923478 60.211487,5.98953913 60.2760522,5.89288696 C60.3402261,5.81814783 60.4153565,5.78606087 60.5014435,5.79662609 C60.5871391,5.8071913 60.6622696,5.83966957 60.7264435,5.89288696 C60.8657478,5.97897391 60.9706174,6.02749565 61.0406609,6.03806087 C61.1099217,6.04862609 61.209313,6.00049565 61.3380522,5.89288696 L61.885487,5.50666957 C62.2932261,5.29223478 62.6927478,5.10714783 63.0844435,4.9514087 C63.4761391,4.79566957 63.9026609,4.63758261 64.3640087,4.47675652 C64.6860522,4.37971304 64.8605739,4.26193043 64.8875739,4.12262609 C64.9137913,3.98332174 64.8042261,3.86514783 64.557313,3.76810435 L64.557313,3.76810435 Z M59.9540087,10.1420609 C59.9004,10.1209304 59.8495304,10.1287565 59.8010087,10.1663217 C59.7528783,10.203887 59.7176609,10.2496696 59.6965304,10.302887 L58.5699652,11.912713 C58.4517913,12.1161913 58.4435739,12.2856261 58.5457043,12.4194522 C58.6474435,12.5536696 58.816487,12.588887 59.0528348,12.5243217 C59.3314435,12.3846261 59.6131826,12.2022783 59.8976609,11.9772783 C60.1817478,11.7514957 60.4580087,11.5159304 60.7264435,11.2686261 C60.8446174,11.0866696 60.8015739,10.9176261 60.5977043,10.761887 C60.3938348,10.6065391 60.2330087,10.4320174 60.1148348,10.238713 L59.9540087,10.1420609 Z M57.8617043,1.93327826 C58.2800087,1.82645217 58.6795304,1.67893043 59.0606609,1.49110435 C59.4414,1.30327826 59.8573565,1.08610435 60.3081391,0.8388 C60.3938348,0.785582609 60.4877478,0.74253913 60.5898783,0.71006087 C60.6916174,0.678365217 60.7804435,0.6138 60.8555739,0.517147826 C60.930313,0.356321739 61.0164,0.267495652 61.1130522,0.251843478 C61.209313,0.235408696 61.327487,0.281191304 61.4671826,0.388408696 C61.6816174,0.517147826 61.885487,0.664669565 62.0787913,0.830973913 C62.2717043,0.997278261 62.4865304,1.15066957 62.722487,1.28997391 C62.8297043,1.36510435 62.8590522,1.45862609 62.8109217,1.57132174 C62.7627913,1.68401739 62.6794435,1.77284348 62.5616609,1.83701739 C62.1429652,1.99784348 61.7512696,2.1078 61.3865739,2.16688696 C61.0218783,2.22597391 60.6301826,2.35197391 60.211487,2.54488696 C60.0717913,2.58832174 60.0185739,2.63371304 60.0502696,2.68223478 C60.0827478,2.72997391 60.1578783,2.76010435 60.2760522,2.77066957 L60.4689652,2.7381913 C60.6407478,2.81332174 60.7749652,2.8458 60.8716174,2.83484348 C60.9678783,2.82427826 61.1130522,2.78123478 61.3059652,2.70610435 C61.5419217,2.60945217 61.7540087,2.52649565 61.9418348,2.45684348 C62.1292696,2.3868 62.3574,2.35197391 62.6258348,2.35197391 C62.9584435,2.31988696 63.154487,2.43258261 63.2131826,2.69006087 C63.2722696,2.94753913 63.2159217,3.21049565 63.0441391,3.47893043 C62.9905304,3.54310435 62.9772261,3.59397391 63.0042261,3.63153913 C63.0308348,3.66949565 63.0981391,3.69336522 63.2053565,3.70393043 C63.5270087,3.6288 63.8435739,3.5568 64.1550522,3.48675652 C64.4661391,3.41710435 64.7932696,3.43588696 65.1368348,3.54310435 C65.2976609,3.65032174 65.4181826,3.79510435 65.4991826,3.97784348 C65.5794,4.1601913 65.6623565,4.33745217 65.7484435,4.50884348 C65.7695739,4.65910435 65.7507913,4.76632174 65.6920957,4.83088696 C65.6330087,4.89506087 65.5336174,4.93810435 65.394313,4.95962609 C65.0617043,4.97058261 64.7557043,5.01597391 64.4767043,5.0961913 C64.1977043,5.1768 63.9026609,5.23862609 63.5915739,5.28127826 C63.5375739,5.27071304 63.4812261,5.2761913 63.4225304,5.29732174 C63.3634435,5.31923478 63.3340957,5.3564087 63.3340957,5.41001739 L63.3020087,5.8608 C63.2053565,5.93593043 63.1032261,5.99501739 62.9960087,6.03806087 C62.8884,6.08110435 62.7972261,6.11827826 62.722487,6.15036522 C62.6152696,6.20436522 62.5264435,6.24701739 62.4567913,6.27910435 C62.3867478,6.31158261 62.3468348,6.38671304 62.3362696,6.50449565 C62.4110087,6.61210435 62.4970957,6.70053913 62.5937478,6.7701913 C62.6904,6.84023478 62.7866609,6.89110435 62.883313,6.9231913 C63.2268783,7.22371304 63.3020087,7.40332174 63.1087043,7.4624087 C62.9154,7.52149565 62.7866609,7.64201739 62.722487,7.82436522 C62.8081826,7.87836522 62.8966174,7.9128 62.9881826,7.92923478 C63.0789652,7.94527826 63.1838348,7.97462609 63.3020087,8.01766957 C63.4734,8.16793043 63.5755304,8.32327826 63.6076174,8.48449565 C63.6397043,8.64532174 63.6342261,8.81162609 63.5915739,8.9834087 C63.441313,9.25184348 63.2910522,9.50110435 63.1407913,9.73158261 C62.9905304,9.96245217 62.8297043,10.2175826 62.6579217,10.4965826 C62.5182261,10.7215826 62.478313,10.8906261 62.5374,11.0033217 C62.5960957,11.1160174 62.7440087,11.2580609 62.9799652,11.4298435 C63.1298348,11.4940174 63.2640522,11.5613217 63.3822261,11.6309739 C63.5000087,11.7010174 63.6342261,11.7945391 63.7848783,11.912713 L64.1386174,12.1381043 C64.5678783,12.2128435 64.9756174,12.2879739 65.3618348,12.3631043 C65.7484435,12.4382348 66.1667478,12.5458435 66.6175304,12.6851478 C66.7787478,12.695713 66.9258783,12.7094087 67.0600957,12.7254522 C67.194313,12.7414957 67.3578783,12.7923652 67.5507913,12.8784522 C67.6478348,12.9320609 67.7198348,12.966887 67.7683565,12.9829304 C67.8168783,12.9993652 67.851313,13.0823217 67.8728348,13.2325826 C67.8728348,13.4039739 67.8622696,13.5381913 67.8407478,13.6348435 C67.8192261,13.7314957 67.7120087,13.7581043 67.5190957,13.7150609 C67.1004,13.6403217 66.708313,13.596887 66.3440087,13.5863217 C65.9789217,13.5757565 65.5872261,13.5651913 65.1689217,13.5546261 C65.0080957,13.6078435 64.8280957,13.6375826 64.6297043,13.6426696 C64.4309217,13.6481478 64.2458348,13.6188 64.0744435,13.5546261 C63.720313,13.4364522 63.4037478,13.2912783 63.1247478,13.119887 C62.8457478,12.9481043 62.5397478,12.695713 62.2075304,12.3631043 C62.0353565,12.2022783 61.8937043,12.1216696 61.7810087,12.1216696 C61.668313,12.1216696 61.5207913,12.2238 61.3380522,12.4276696 C60.9733565,12.7172348 60.6352696,12.9590609 60.3241826,13.1519739 C60.0130957,13.344887 59.6750087,13.4470174 59.310313,13.4575826 C59.149487,13.4791043 58.9804435,13.4873217 58.8031826,13.4818435 C58.626313,13.4763652 58.4623565,13.4039739 58.312487,13.2646696 C58.258487,13.1785826 58.2076174,13.0846696 58.1590957,12.9829304 C58.1113565,12.8808 58.0440522,12.8354087 57.9583565,12.8459739 C57.7971391,12.8995826 57.6414,13.0071913 57.4915304,13.1680174 C57.3412696,13.3292348 57.2180087,13.4791043 57.1209652,13.6188 C57.0027913,13.6833652 56.8932261,13.7502783 56.791487,13.8199304 C56.6889652,13.8895826 56.584487,13.9189304 56.4776609,13.9083652 C56.241313,13.7796261 56.1231391,13.623887 56.1231391,13.4419304 C56.1231391,13.2591913 56.1446609,13.0717565 56.1877043,12.8784522 C56.1231391,12.7066696 56.1016174,12.561887 56.1231391,12.443713 C56.1446609,12.3255391 56.241313,12.1701913 56.4130957,11.9772783 C56.4987913,11.8696696 56.584487,11.786713 56.6705739,11.7276261 C56.7562696,11.6685391 56.8529217,11.6016261 56.9605304,11.5264957 C57.1640087,11.1723652 57.3600522,10.8342783 57.547487,10.5122348 C57.735313,10.1905826 57.9583565,9.86345217 58.2154435,9.53045217 C58.3230522,9.33753913 58.3657043,9.17632174 58.3441826,9.04758261 C58.3230522,8.91884348 58.2479217,8.77953913 58.1191826,8.62927826 C58.0225304,8.51149565 57.9583565,8.39332174 57.9258783,8.27514783 C57.8937913,8.15736522 57.8937913,8.04975652 57.9258783,7.95310435 C57.9043565,7.77075652 57.880487,7.62871304 57.853487,7.52658261 C57.826487,7.42484348 57.8828348,7.27732174 58.0225304,7.08401739 C58.0655739,6.95527826 58.0491391,6.87232174 57.9740087,6.83475652 C57.8992696,6.7971913 57.8186609,6.81597391 57.7325739,6.89110435 C57.6144,6.90166957 57.5208783,6.95293043 57.4512261,7.04371304 C57.3811826,7.13488696 57.3248348,7.24484348 57.2821826,7.37358261 C57.2285739,7.65297391 57.1479652,7.90771304 57.0407478,8.1381913 C56.9335304,8.36906087 56.7777913,8.62927826 56.5739217,8.91884348 C56.4557478,9.27297391 56.1798783,9.45806087 55.7451391,9.47410435 C55.3107913,9.49014783 54.9535304,9.40210435 54.6745304,9.2088 C54.5782696,9.06910435 54.5191826,8.9298 54.4976609,8.79049565 C54.4761391,8.6508 54.4385739,8.50053913 54.3849652,8.33932174 C54.3955304,8.00710435 54.468313,7.69836522 54.6021391,7.41388696 C54.7363565,7.1298 54.9535304,6.82653913 55.2544435,6.50449565 C55.3186174,6.4188 55.3749652,6.33310435 55.4230957,6.24701739 C55.4712261,6.16132174 55.5440087,6.09675652 55.6402696,6.05410435 C55.7584435,6.03258261 55.8660522,5.99775652 55.962313,5.94923478 C56.0589652,5.90110435 56.1767478,5.82871304 56.3164435,5.73206087 L57.3788348,5.31375652 C57.4539652,5.29223478 57.5287043,5.2574087 57.6038348,5.20888696 C57.6789652,5.16075652 57.7220087,5.08836522 57.7325739,4.99171304 C57.7008783,4.8524087 57.6550957,4.7181913 57.5960087,4.58945217 C57.5369217,4.46071304 57.4645304,4.32649565 57.3788348,4.1868 C57.2821826,4.05806087 57.2606609,3.91093043 57.3142696,3.74423478 C57.3678783,3.57793043 57.4539652,3.43588696 57.5721391,3.31771304 C57.6789652,3.32866957 57.7889217,3.34471304 57.9016174,3.36623478 C58.0147043,3.38736522 58.1297478,3.46836522 58.2479217,3.60766957 C58.3766609,3.74697391 58.4999217,3.78727826 58.6180957,3.7281913 C58.7358783,3.66949565 58.8700957,3.5751913 59.0203565,3.44645217 C59.1060522,3.31771304 59.1839217,3.25627826 59.2535739,3.26136522 C59.3236174,3.26684348 59.3850522,3.33923478 59.4386609,3.47893043 C59.4601826,3.58614783 59.4492261,3.69884348 59.4069652,3.81662609 C59.3639217,3.9348 59.3314435,4.04749565 59.310313,4.15471304 C59.310313,4.45523478 59.248487,4.69666957 59.1252261,4.87901739 C59.0015739,5.06175652 58.7844,5.17445217 58.473313,5.21710435 C58.3441826,5.17445217 58.194313,5.2304087 58.0225304,5.38614783 C57.8507478,5.54149565 57.7971391,5.66749565 57.8617043,5.76414783 C58.0225304,5.75358261 58.1837478,5.70545217 58.3441826,5.61936522 C58.5054,5.53366957 58.6771826,5.45306087 58.8595304,5.37793043 L60.3402261,4.86297391 C60.4795304,4.80936522 60.6352696,4.74793043 60.8070522,4.67788696 C60.9784435,4.60823478 61.1130522,4.50884348 61.209313,4.37971304 C61.0375304,4.27288696 60.8716174,4.25136522 60.7104,4.31553913 C60.5495739,4.37971304 60.4368783,4.2944087 60.3727043,4.05806087 C60.2439652,3.82210435 60.1175739,3.56736522 59.994313,3.29384348 C59.8706609,3.01993043 59.6965304,2.81332174 59.4711391,2.67401739 C59.2027043,2.70610435 58.9534435,2.72997391 58.7229652,2.7464087 C58.4920957,2.76245217 58.2479217,2.78123478 57.9904435,2.80275652 C57.6899217,2.77066957 57.5341826,2.6658 57.5236174,2.48853913 C57.5126609,2.31166957 57.6253565,2.12658261 57.8617043,1.93327826 L57.8617043,1.93327826 Z" id="Fill-24"></path>
                </g>
                <g id="大白菜" fill="#FEFEFE">
                    <path d="M50.15395,2.9781 L50.15395,4.51845 L53.6869,4.14225 C53.6869,4.02615 53.8147,3.1185 54.45505,3.0483 C54.60355,3.0321 54.80515,3.0069 55.0261,2.9781 L58.46185,2.9781 L58.46185,3.99915 L62.0164,3.62295 L62.0164,2.9781 L65.5489,2.9781 L66.44845,2.2257 L64.4356,0.7209 L63.2152,1.6704 L62.89705,1.6704 C62.16895,1.53315 62.0362,1.15155 62.0164,0.9594 L62.0164,0 L58.46185,0.07605 L58.46185,1.1151 C58.1005,1.5687 57.5632,1.65645 57.2914,1.6704 L54.7363,1.6704 C53.8147,1.6704 53.6869,0.7551 53.6869,0.7551 L53.6869,0 L50.15395,0.0225 L50.15395,0.88425 C50.14585,1.035 50.023,1.58715 48.66625,1.6704 L46,1.6704 L46.3852,2.9781 L50.15395,2.9781 Z M58.93273,11.39742 L64.99243,11.39742 L65.89153,10.64502 L63.94303,9.17622 L62.74423,10.08972 L58.43458,10.08972 C57.90853,10.08972 57.86443,9.65277 57.86218,9.53577 L57.86218,9.01467 L56.23498,8.85357 L58.29058,8.20872 C57.78163,7.71642 57.19078,7.26597 56.52208,6.85512 C56.51668,6.85152 56.51353,6.84837 56.50813,6.84432 C55.84168,6.40467 56.33128,6.32187 56.33128,6.32187 L56.33128,6.32097 C57.70198,6.27327 58.99393,6.21567 60.20758,6.14817 L60.20848,6.14952 C60.35608,6.14097 60.82678,6.16572 60.63868,6.53427 C60.17968,7.45272 59.59693,8.28567 58.88998,9.03267 L60.81688,9.78507 C62.15878,8.84187 63.31483,7.77897 64.28593,6.59682 L63.45703,6.30567 C63.13393,6.19227 63.31123,5.93262 63.31123,5.93262 C64.09828,5.87142 64.84438,5.80032 65.54908,5.71887 L63.36523,3.76632 C59.12578,4.45887 53.60788,4.88907 46.81378,5.05602 L47.22058,6.45327 L48.63043,6.45327 C48.68083,6.49917 48.71413,6.58152 48.70378,6.71967 L48.31228,6.95502 C48.86893,7.81452 49.39723,8.82972 49.89673,10.00017 L52.57333,8.37027 C52.24393,8.02962 51.91768,7.71417 51.59413,7.41762 L51.59908,7.41942 C51.59908,7.41942 51.27238,7.12692 51.13378,6.77457 C50.99473,6.42222 51.28543,6.42717 51.28543,6.42717 L51.28543,6.42672 C52.24528,6.41637 53.17453,6.40062 54.07453,6.37992 C54.09478,6.42672 54.09613,6.48072 54.05068,6.54057 C54.03088,6.56667 54.01873,6.59007 54.01153,6.61077 L53.72938,6.70392 C54.31483,7.33707 54.74998,8.01162 55.03573,8.72802 L54.43633,8.67447 L54.43633,9.44757 C54.39268,9.67122 54.20908,9.98217 53.54488,10.08972 L46.49248,10.08972 L46.33813,11.39742 L52.53058,11.39742 C50.73193,12.77082 48.65473,13.88142 46.29943,14.72922 L47.09188,15.87582 C49.74913,15.35562 52.04053,14.54562 53.97508,13.45212 C54.20278,13.38597 54.42643,13.40577 54.43003,13.82247 C54.43003,13.86252 54.43273,13.89402 54.43633,13.92327 L54.43633,16.86087 L57.86218,16.86087 L57.86218,13.25502 C57.86443,13.16322 57.90403,12.84552 58.37113,13.00212 C58.37608,13.00392 58.37968,13.00437 58.38463,13.00572 C60.13693,14.33727 62.21593,15.33222 64.62838,15.98337 L66.36268,13.26042 C64.46413,13.09347 62.87968,12.79467 61.60933,12.36447 C60.66703,12.10212 59.77468,11.77947 58.93273,11.39742 Z" id="Combined-Shape"></path>
                    <path d="M37.45535,8.5626 L27.6485,8.5626 L27.6485,5.6691 L27.6485,5.53455 L27.6485,5.42385 C27.66065,5.175 27.7673,4.5819 28.51115,4.4964 L36.46895,4.4964 C36.76055,4.52025 37.32125,4.6791 37.45535,5.53455 L37.45535,8.5626 Z M37.45535,12.99825 C37.0247,13.82985 36.08735,14.04405 36.08735,14.04405 L28.66865,14.04405 C27.76955,13.8762 27.6485,12.99825 27.6485,12.99825 L27.6485,9.8883 L37.45535,9.8883 L37.45535,12.99825 Z M38.8688,1.91655 L37.994,2.54115 C37.65875,2.7459 36.88475,3.09285 35.357,3.1707 L34.01915,3.1707 C32.71505,3.01005 33.4292,2.37015 33.4292,2.37015 L33.4292,2.37015 C33.97145,1.89 34.8485,1.10655 35.1644,0.7884 L30.47495,0 C30.2873,0.82935 30.07625,1.61595 29.8427,2.36205 C29.80445,2.44755 29.7347,2.5614 29.6177,2.68425 C29.1605,3.04875 28.6061,3.14775 28.2542,3.1707 L27.6485,3.1707 L27.6485,1.95975 L23.9873,1.95255 L23.9873,16.9461 L27.6485,16.9461 L27.6485,15.36975 L33.67085,15.36975 C33.67085,15.36975 35.25575,15.36975 36.31775,15.58935 C37.3802,15.8085 37.45535,16.803 37.45535,16.803 L41.0954,16.87635 L41.0954,6.9732 C41.0954,5.61285 41.57105,4.9338 41.69975,4.7745 L42.27305,4.1022 L38.8688,1.91655 Z" id="Fill-40"></path>
                    <path d="M15.5763,11.02095 C14.2272,9.77715 13.17105,8.7354 12.4065,7.5159 C12.14415,6.9408 11.9862,6.43275 12.29355,6.0705 C12.5127,5.81265 12.7503,5.6052 12.7503,5.6052 L13.89015,5.6052 L14.09265,5.6052 L19.27755,5.6052 L20.2185,4.54815 L18.19035,3.0087 L16.9353,3.95325 L13.401,3.95325 C11.78145,3.95325 11.5812,2.8917 11.5614,2.5065 L11.5614,0.26955 L7.7769,0 L7.7769,2.1879 C7.7769,2.1879 7.8255,3.95325 5.46525,3.95325 L0.4122,3.95325 L0,5.6052 L6.01605,5.6052 C6.01605,5.6052 7.5672,5.6736 7.4493,6.96015 C7.14465,8.23455 6.61275,9.41985 5.85315,10.4436 C4.5567,12.4263 2.61855,13.99365 0.04005,15.6843 L0.918,16.73415 C4.44465,15.26445 7.09335,13.6683 8.8641,11.4057 C9.63045,10.4958 9.9603,9.48735 10.39275,8.37945 C10.8387,9.7209 11.7567,10.9746 12.6072,12.14055 C13.90365,14.02965 15.7761,15.6681 17.68635,17.05635 L20.26035,14.04 C18.75465,13.2237 17.19315,12.39705 15.5763,11.02095" id="Fill-42"></path>
                    <path d="M62.669925,0.964745 C62.669925,0.964745 63.427275,1.116845 64.041975,0.638495 C64.656675,0.160595 64.388025,0.987695 64.388025,0.987695 L63.342675,1.864295 L62.364825,1.375145 L62.599725,0.925595" id="Fill-36"></path>
                    <path d="M66.04254,2.18969 C66.04254,2.18969 65.65149,2.77469 64.44639,2.65634 C63.24174,2.53844 61.80849,2.41784 61.80849,2.41784 L61.30269,1.86389 L64.84329,1.69874 L66.04254,2.18969 Z" id="Fill-38"></path>
                    <path d="M12.67758,5.24384 C12.67758,5.24384 13.21038,4.78079 13.56228,4.87079 C13.91373,4.96124 13.33728,4.31459 13.33728,4.31459 C13.33728,4.31459 12.09978,3.79484 12.07143,4.46219 L12.04353,5.12999 L12.61998,5.24384" id="Fill-44"></path>
                </g>
            </g>
        </g>
    </g>
</svg>